<svg width="31" height="38" viewBox="0 0 31 38" fill="none" xmlns="http://www.w3.org/2000/svg">
<path fill-rule="evenodd" clip-rule="evenodd" d="M0.916917 14.9578C0.904821 14.7693 0.898438 14.5825 0.898438 14.3973C0.898438 6.4466 7.61438 0.00146484 15.8984 0.00146484C24.1828 0.00146484 30.8984 6.4466 30.8984 14.3973C30.8984 14.5825 30.8924 14.7693 30.8803 14.9578C30.8924 15.2178 30.8984 15.4796 30.8984 15.7427C30.8984 24.4363 17.4538 37.4307 15.8984 37.4307C14.3431 37.4307 0.898438 24.4363 0.898438 15.7427C0.898438 15.4796 0.904821 15.2178 0.916917 14.9578Z" fill="#EF9021"/>
<path d="M4.73435 12.564H5.58572C5.87309 12.564 6.09123 12.3405 6.09123 12.0478C6.09123 11.7551 5.87309 11.5316 5.58572 11.5316H4.73435V12.564ZM6.90541 13.8198V14.5116H6.67657C6.13918 14.5116 5.75069 14.2987 5.51121 13.873L5.08021 13.2025H4.73435V14.5116H4V10.8398H5.60168C6.30942 10.8398 6.84687 11.3561 6.84687 12.0425C6.84687 12.6012 6.4744 13.0376 5.93696 13.1653L6.21363 13.5431C6.34135 13.724 6.52762 13.8198 6.7564 13.8198H6.90541Z" fill="white"/>
<path d="M7.69465 12.8881H9.11545C9.02498 12.5582 8.74298 12.34 8.40239 12.34C8.05647 12.34 7.78512 12.5582 7.69465 12.8881ZM9.8391 13.3936H7.68401C7.77448 13.7395 8.05121 13.963 8.42368 13.963C8.70567 13.963 8.95047 13.8406 9.06755 13.665H9.81787C9.61032 14.2078 9.07288 14.5749 8.41303 14.5749C7.57225 14.5749 6.94434 13.963 6.94434 13.1542C6.94434 12.3453 7.57225 11.7334 8.40239 11.7334C9.23253 11.7334 9.86044 12.3453 9.86044 13.1595C9.86044 13.2286 9.85512 13.3298 9.8391 13.3936Z" fill="white"/>
<path d="M9.96582 13.1544C9.96582 12.3456 10.5937 11.7336 11.4239 11.7336C12.1476 11.7336 12.7116 12.1966 12.8447 12.8405H12.1103C11.9932 12.5797 11.7378 12.4041 11.4239 12.4041C10.9982 12.4041 10.6789 12.7287 10.6789 13.1544C10.6789 13.5801 10.9982 13.9047 11.4239 13.9047C11.7378 13.9047 11.9932 13.7291 12.1103 13.4684H12.8447C12.7116 14.1122 12.1476 14.5752 11.4239 14.5752C10.5937 14.5752 9.96582 13.9632 9.96582 13.1544Z" fill="white"/>
<path d="M13.1227 11.7975H13.8145V14.5114H13.1227V11.7975ZM13.0322 10.9674C13.0322 10.7226 13.2238 10.5364 13.4686 10.5364C13.7134 10.5364 13.9049 10.7226 13.9049 10.9674C13.9049 11.2122 13.7134 11.3984 13.4686 11.3984C13.2238 11.3984 13.0322 11.2122 13.0322 10.9674Z" fill="white"/>
<path d="M14.1074 13.154C14.1074 12.3451 14.7353 11.7332 15.5655 11.7332C16.2892 11.7332 16.8532 12.1961 16.9863 12.84H16.2519C16.1348 12.5792 15.8794 12.4036 15.5655 12.4036C15.1398 12.4036 14.8205 12.7282 14.8205 13.154C14.8205 13.5796 15.1398 13.9042 15.5655 13.9042C15.8794 13.9042 16.1348 13.7286 16.2519 13.4679H16.9863C16.8532 14.1118 16.2892 14.5747 15.5655 14.5747C14.7353 14.5747 14.1074 13.9628 14.1074 13.154Z" fill="white"/>
<path d="M17.841 12.0423C17.841 12.4627 17.9315 12.8459 18.0912 13.1491C18.3466 12.7873 18.4902 12.3616 18.4902 11.9146C18.4902 11.5049 18.3732 11.2867 18.1816 11.2867C17.9741 11.2867 17.841 11.5262 17.841 12.0423ZM19.2884 13.8409V14.5114H19.0862C18.6765 14.5114 18.3147 14.3837 18.0167 14.1602C17.8144 14.3039 17.5909 14.4263 17.3462 14.5114L17.0801 13.958C17.2557 13.8834 17.4207 13.793 17.5697 13.6813C17.2876 13.2662 17.128 12.7128 17.128 12.0902C17.128 11.143 17.5537 10.6162 18.1922 10.6162C18.8042 10.6162 19.2033 11.0951 19.2033 11.9146C19.2033 12.5531 18.9639 13.1758 18.5488 13.6706C18.7138 13.7824 18.9106 13.8409 19.1235 13.8409H19.2884Z" fill="white"/>
<path d="M21.5179 13.1542C21.5179 12.7285 21.1986 12.4039 20.7676 12.4039C20.3419 12.4039 20.0226 12.7285 20.0226 13.1542C20.0226 13.5799 20.3419 13.9045 20.7676 13.9045C21.1986 13.9045 21.5179 13.5799 21.5179 13.1542ZM22.4916 13.8407V14.5111H22.2948C21.9116 14.5111 21.6669 14.3675 21.5658 14.0855C21.353 14.3887 21.0283 14.5749 20.6346 14.5749C19.8789 14.5749 19.3096 13.963 19.3096 13.1542C19.3096 12.3453 19.8789 11.7334 20.6346 11.7334C21.0017 11.7334 21.3051 11.8931 21.5179 12.1538V11.7973H22.2097V13.6118C22.2097 13.7555 22.2895 13.8407 22.4385 13.8407H22.4916Z" fill="white"/>
<path d="M24.8507 12.9574L24.2015 14.5112H23.4831L22.3604 11.7974H23.1479L23.8556 13.6492L24.1855 12.8137C24.3346 12.404 24.3984 12.0794 24.3399 11.7974H25.0476C25.1115 12.106 25.0476 12.4891 24.8507 12.9574Z" fill="white"/>
<path d="M25.8343 12.8884H27.2551C27.1646 12.5584 26.8826 12.3403 26.542 12.3403C26.1962 12.3403 25.9248 12.5584 25.8343 12.8884ZM27.9787 13.3939H25.8237C25.9141 13.7398 26.1909 13.9632 26.5633 13.9632C26.8453 13.9632 27.0901 13.8408 27.2072 13.6653H27.9575C27.75 14.208 27.2125 14.5752 26.5527 14.5752C25.7119 14.5752 25.084 13.9632 25.084 13.1544C25.084 12.3456 25.7119 11.7336 26.542 11.7336C27.3722 11.7336 28.0001 12.3456 28.0001 13.1597C28.0001 13.2289 27.9948 13.33 27.9787 13.3939Z" fill="white"/>
<path d="M10.51 18.288L9.93983 18.2882L9.93937 16.8481L9.31041 18.2884L8.81699 18.2886L8.17491 16.8487L8.17537 18.2888L7.60519 18.2889L7.60449 16.1304L8.2287 16.1301C8.26821 16.1301 8.30656 16.1349 8.34376 16.1444C8.38095 16.154 8.41497 16.167 8.4458 16.1835C8.47657 16.2001 8.50364 16.2202 8.5269 16.2438C8.55015 16.2674 8.56756 16.2933 8.57925 16.3214L9.01719 17.4013C9.02304 17.4173 9.02853 17.4354 9.0338 17.4554C9.039 17.4756 9.04398 17.4947 9.04866 17.5127C9.05329 17.5338 9.05734 17.5559 9.06087 17.579C9.06197 17.5569 9.06492 17.5353 9.06954 17.5142C9.07307 17.4961 9.07741 17.4768 9.08262 17.4562C9.08782 17.4356 9.09453 17.4173 9.10263 17.4012L9.53647 16.321C9.54804 16.2909 9.56609 16.2638 9.59044 16.2396C9.61485 16.2156 9.64274 16.1955 9.67415 16.1794C9.7055 16.1633 9.7398 16.151 9.77699 16.1425C9.81419 16.1339 9.85138 16.1296 9.88858 16.1296L10.5093 16.1294L10.51 18.288Z" fill="white"/>
<path d="M11.5075 17.4987C11.5075 17.5419 11.5171 17.5828 11.5363 17.6214C11.5555 17.6601 11.5816 17.6937 11.6148 17.7223C11.6479 17.7509 11.6868 17.7735 11.7316 17.7901C11.7763 17.8067 11.8237 17.8149 11.8737 17.8149C11.9237 17.8149 11.971 17.8066 12.0158 17.79C12.0605 17.7734 12.0997 17.7508 12.1335 17.7222C12.1672 17.6935 12.1936 17.6599 12.2128 17.6212C12.2319 17.5826 12.2415 17.5417 12.2415 17.4985C12.2415 17.4553 12.2319 17.4144 12.2127 17.3757C12.1935 17.337 12.167 17.3031 12.1334 17.274C12.0996 17.2449 12.0604 17.2221 12.0156 17.2055C11.9709 17.1889 11.9235 17.1807 11.8735 17.1807C11.8235 17.1808 11.7762 17.189 11.7314 17.2056C11.6867 17.2222 11.6477 17.2451 11.6146 17.2742C11.5815 17.3034 11.5554 17.3372 11.5362 17.3759C11.517 17.4146 11.5075 17.4555 11.5075 17.4987ZM10.9355 17.4974C10.9355 17.3859 10.9602 17.2807 11.0096 17.1818C11.0589 17.0828 11.1263 16.9964 11.2118 16.9226C11.2971 16.8488 11.3971 16.7905 11.5116 16.7477C11.626 16.7051 11.7478 16.6837 11.8768 16.6836C12.0059 16.6836 12.1276 16.7049 12.2422 16.7475C12.3566 16.7902 12.4566 16.8484 12.5421 16.9221C12.6275 16.996 12.695 17.0823 12.7444 17.1812C12.7938 17.2801 12.8186 17.3853 12.8186 17.4967C12.8186 17.6083 12.794 17.7134 12.7446 17.8124C12.6952 17.9113 12.6279 17.9977 12.5424 18.0715C12.4571 18.1453 12.3571 18.2037 12.2426 18.2463C12.1281 18.289 12.0064 18.3104 11.8773 18.3105C11.7483 18.3106 11.6266 18.2892 11.512 18.2466C11.3976 18.2039 11.2975 18.1457 11.2121 18.0719C11.1267 17.9981 11.0592 17.9118 11.0098 17.8129C10.9603 17.7141 10.9356 17.6088 10.9355 17.4974Z" fill="white"/>
<path d="M13.7944 17.166L13.7946 17.7294C13.7946 17.7505 13.7981 17.7676 13.8051 17.7806C13.8121 17.7937 13.8205 17.8038 13.8304 17.8108C13.8402 17.8178 13.8504 17.8223 13.8609 17.8243C13.8714 17.8263 13.8807 17.8273 13.8888 17.8273C13.9004 17.8273 13.9117 17.8263 13.9228 17.8242C13.9338 17.8223 13.9429 17.8212 13.9498 17.8212C13.9812 17.8212 14.0109 17.8252 14.0388 17.8333C14.0667 17.8413 14.0922 17.8513 14.1155 17.8634C14.1387 17.8754 14.1597 17.8892 14.1783 17.9048C14.1969 17.9203 14.2137 17.9362 14.2289 17.9522C14.2637 17.9904 14.2928 18.0335 14.3161 18.0817C14.2824 18.1109 14.2417 18.139 14.194 18.1661C14.1464 18.1932 14.097 18.2171 14.0459 18.2377C13.9947 18.2583 13.9448 18.2749 13.896 18.2875C13.8471 18.3 13.8047 18.3063 13.7686 18.3063C13.685 18.3064 13.6094 18.2946 13.542 18.271C13.4745 18.2474 13.4173 18.2149 13.3702 18.1732C13.3231 18.1315 13.2868 18.0818 13.2612 18.024C13.2356 17.9664 13.2228 17.9028 13.2227 17.8336L13.2225 17.1662L12.961 17.1663L12.9609 16.9192C12.9609 16.86 12.983 16.8126 13.0271 16.7769C13.0713 16.7413 13.1364 16.7184 13.2224 16.7083L13.2223 16.4281C13.2223 16.3879 13.2295 16.3518 13.2441 16.3197C13.2586 16.2875 13.2746 16.2599 13.292 16.2368C13.3129 16.2107 13.3367 16.1866 13.3634 16.1644L13.7941 16.1643L13.7943 16.7035L14.2302 16.7034L14.2304 17.1659L13.7944 17.166Z" fill="white"/>
<path d="M14.9059 17.4972C14.9059 17.5404 14.9155 17.5813 14.9347 17.62C14.9539 17.6586 14.9801 17.6923 15.0132 17.7209C15.0464 17.7494 15.0853 17.7721 15.1301 17.7886C15.1748 17.8052 15.2221 17.8134 15.2721 17.8134C15.3221 17.8134 15.3695 17.8051 15.4142 17.7885C15.459 17.7719 15.4982 17.7493 15.5319 17.7207C15.5656 17.6921 15.5921 17.6584 15.6112 17.6197C15.6304 17.5811 15.64 17.5402 15.6399 17.497C15.6399 17.4538 15.6303 17.4129 15.6111 17.3742C15.5919 17.3356 15.5655 17.3017 15.5318 17.2726C15.498 17.2435 15.4588 17.2206 15.414 17.2041C15.3693 17.1875 15.3219 17.1793 15.2719 17.1793C15.2219 17.1793 15.1746 17.1876 15.1298 17.2041C15.0851 17.2207 15.0462 17.2436 15.013 17.2727C14.9799 17.3019 14.9538 17.3358 14.9347 17.3744C14.9154 17.4131 14.9059 17.454 14.9059 17.4972ZM14.334 17.4959C14.334 17.3844 14.3586 17.2792 14.408 17.1803C14.4574 17.0814 14.5248 16.995 14.6102 16.9211C14.6956 16.8473 14.7955 16.789 14.91 16.7463C15.0245 16.7036 15.1463 16.6822 15.2752 16.6821C15.4043 16.6821 15.5261 16.7034 15.6406 16.746C15.7551 16.7887 15.855 16.8469 15.9405 16.9207C16.026 16.9945 16.0934 17.0809 16.1429 17.1797C16.1923 17.2786 16.217 17.3838 16.2171 17.4953C16.2171 17.6068 16.1924 17.712 16.143 17.8109C16.0936 17.9098 16.0263 17.9962 15.9409 18.07C15.8555 18.1439 15.7555 18.2022 15.6411 18.2449C15.5266 18.2876 15.4048 18.309 15.2758 18.309C15.1468 18.3091 15.025 18.2877 14.9105 18.2451C14.796 18.2025 14.696 18.1442 14.6105 18.0705C14.5251 17.9967 14.4577 17.9104 14.4082 17.8114C14.3587 17.7126 14.334 17.6074 14.334 17.4959Z" fill="white"/>
<path d="M8.38219 19.3273C8.33452 19.3273 8.28831 19.3351 8.24359 19.3507C8.19882 19.3663 8.15873 19.3884 8.12327 19.417C8.08781 19.4457 8.05935 19.4796 8.03789 19.5187C8.01637 19.5579 8.00567 19.6006 8.00567 19.6468C8.00567 19.694 8.01643 19.7371 8.03795 19.7763C8.05947 19.8155 8.08799 19.8491 8.12345 19.8772C8.1589 19.9054 8.19899 19.9274 8.24376 19.9435C8.28854 19.9596 8.3347 19.9675 8.38242 19.9675C8.41724 19.9675 8.44923 19.9637 8.47827 19.9562C8.50731 19.9486 8.53612 19.9404 8.56458 19.9313C8.59304 19.9223 8.62271 19.914 8.65348 19.9064C8.68426 19.8989 8.71885 19.8951 8.75726 19.8951C8.81071 19.8951 8.85837 19.9043 8.90019 19.9229C8.94207 19.9415 8.98043 19.9658 9.01531 19.9959L9.1583 20.1209C9.10254 20.1721 9.04382 20.2188 8.98228 20.2611C8.92067 20.3032 8.85675 20.3389 8.79052 20.3681C8.72429 20.3972 8.65684 20.4198 8.58829 20.4359C8.51969 20.452 8.45114 20.4601 8.38254 20.4601C8.25233 20.4602 8.12998 20.4388 8.01551 20.3962C7.90097 20.3535 7.80073 20.2953 7.71471 20.2215C7.62864 20.1478 7.56061 20.0614 7.51063 19.9625C7.46059 19.8637 7.43555 19.7584 7.43555 19.647C7.43549 19.5355 7.46042 19.4303 7.5104 19.3314C7.56032 19.2324 7.62829 19.146 7.7143 19.0722C7.80026 18.9984 7.90057 18.9401 8.01504 18.8973C8.12946 18.8547 8.2518 18.8333 8.38201 18.8333C8.45056 18.8332 8.51917 18.8412 8.58777 18.8573C8.65638 18.8733 8.72377 18.8959 8.79006 18.925C8.85629 18.9541 8.92027 18.9897 8.98187 19.0319C9.04348 19.0741 9.10219 19.1207 9.15801 19.1719L9.01508 19.2984C8.94421 19.3618 8.85531 19.3934 8.74835 19.3935C8.71231 19.3935 8.6783 19.39 8.64637 19.383C8.61438 19.376 8.58384 19.3684 8.5548 19.3604C8.52576 19.3524 8.49695 19.3448 8.46849 19.3378C8.43998 19.3308 8.41123 19.3273 8.38219 19.3273Z" fill="white"/>
<path d="M10.0671 20.0482C10.1183 20.0482 10.1737 20.0417 10.2337 20.0286C10.2935 20.0155 10.3536 19.9959 10.4141 19.9698L10.414 19.7348C10.3942 19.7328 10.3716 19.7313 10.346 19.7303C10.3204 19.7293 10.2908 19.7288 10.2571 19.7288C10.2117 19.7288 10.1678 19.7326 10.1254 19.7401C10.083 19.7477 10.0453 19.7587 10.0121 19.7733C9.97903 19.7879 9.95253 19.8052 9.93281 19.8253C9.91302 19.8455 9.90319 19.8675 9.90319 19.8916C9.90319 19.9097 9.90695 19.928 9.91453 19.9466C9.92211 19.9652 9.93287 19.982 9.94681 19.9971C9.96075 20.0121 9.97787 20.0244 9.99829 20.0339C10.0186 20.0435 10.0416 20.0482 10.0671 20.0482ZM9.50365 19.1597C9.52343 19.1335 9.5449 19.1075 9.56815 19.0813C9.58787 19.0592 9.61055 19.0366 9.63612 19.0135C9.66169 18.9904 9.68899 18.9703 9.71808 18.9532C9.78779 18.914 9.86276 18.8841 9.94293 18.8635C10.0232 18.8429 10.1126 18.8326 10.2114 18.8325C10.3242 18.8325 10.4218 18.843 10.5044 18.864C10.5869 18.8852 10.6567 18.9145 10.7137 18.9521C10.7706 18.9897 10.8168 19.0345 10.8523 19.0862C10.8878 19.1379 10.9151 19.1938 10.9343 19.2541C10.9535 19.3143 10.9666 19.3779 10.9736 19.4446C10.9806 19.5115 10.9841 19.579 10.9841 19.6472L10.9844 20.4366L10.5328 20.4367C10.5223 20.4247 10.5136 20.4111 10.5066 20.396C10.5008 20.383 10.495 20.3677 10.4892 20.3501C10.4833 20.3325 10.4804 20.3122 10.4804 20.2891C10.4467 20.3233 10.411 20.3514 10.3732 20.3735C10.3355 20.3956 10.2983 20.4129 10.2617 20.4255C10.225 20.4381 10.1896 20.4468 10.1553 20.4518C10.121 20.4569 10.0905 20.4594 10.0638 20.4595C9.96613 20.4595 9.8749 20.4469 9.79004 20.4219C9.70513 20.3968 9.63132 20.3614 9.56855 20.3158C9.50579 20.2701 9.45633 20.2151 9.4203 20.1509C9.38426 20.0866 9.36621 20.0153 9.36621 19.937C9.36615 19.7622 9.44251 19.6317 9.59534 19.5452C9.74816 19.4589 9.97046 19.4156 10.2622 19.4155C10.289 19.4155 10.3116 19.4172 10.3302 19.4208C10.3488 19.4242 10.3639 19.428 10.3756 19.432C10.3883 19.4371 10.3993 19.4426 10.4087 19.4486C10.4063 19.3813 10.386 19.3263 10.3476 19.2837C10.3092 19.241 10.2581 19.2196 10.1942 19.2197C10.1651 19.2197 10.1378 19.2242 10.1122 19.2333C10.0866 19.2423 10.0611 19.2521 10.0355 19.2627C10.0099 19.2732 9.98406 19.283 9.95791 19.292C9.93177 19.3011 9.90302 19.3056 9.87161 19.3056C9.83326 19.3057 9.79519 19.2989 9.75742 19.2853C9.71959 19.2718 9.68442 19.2565 9.65191 19.2395L9.50365 19.1597Z" fill="white"/>
<path d="M11.8839 18.8547C11.8978 18.8678 11.9086 18.8828 11.9162 18.8999C11.9237 18.9169 11.9292 18.933 11.9327 18.948C11.9373 18.9662 11.9391 18.9842 11.938 19.0023C11.9542 18.9742 11.9775 18.9496 12.0077 18.9284C12.0379 18.9073 12.071 18.89 12.1071 18.8764C12.1431 18.8629 12.1803 18.8525 12.2186 18.8455C12.257 18.8385 12.2925 18.835 12.325 18.835C12.4261 18.835 12.5534 18.8615 12.7069 18.9147L12.6668 19.1135C12.6587 19.1527 12.6433 19.1853 12.6207 19.2114C12.598 19.2376 12.571 19.2584 12.5396 19.274C12.5082 19.2896 12.4739 19.3006 12.4367 19.3072C12.3995 19.3137 12.3618 19.317 12.3234 19.317C12.2839 19.317 12.2461 19.3215 12.2101 19.3306C12.174 19.3396 12.1421 19.3515 12.1142 19.366C12.0863 19.3806 12.0628 19.3972 12.0436 19.4157C12.0244 19.4344 12.0125 19.4532 12.0079 19.4722L12.0082 20.4363L11.438 20.4365L11.4375 18.8549L11.8839 18.8547Z" fill="white"/>
<path d="M13.3545 19.4505C13.3545 19.4736 13.3598 19.4957 13.3702 19.5167C13.3807 19.5378 13.395 19.5562 13.413 19.5717C13.431 19.5873 13.4519 19.5995 13.4758 19.6086C13.4996 19.6176 13.5255 19.6222 13.5533 19.6221C13.5812 19.6221 13.6071 19.6176 13.6309 19.6085C13.6548 19.5995 13.676 19.5872 13.6945 19.5716C13.7131 19.556 13.7277 19.5377 13.7382 19.5166C13.7486 19.4955 13.7538 19.4734 13.7538 19.4504C13.7538 19.4262 13.7486 19.4034 13.7381 19.3818C13.7276 19.3602 13.7131 19.3417 13.6945 19.3261C13.6759 19.3105 13.6546 19.298 13.6308 19.2884C13.607 19.2789 13.5811 19.2742 13.5532 19.2742C13.5254 19.2742 13.4995 19.279 13.4757 19.2885C13.4518 19.2981 13.4309 19.3106 13.4129 19.3262C13.3949 19.3417 13.3806 19.3603 13.3702 19.3819C13.3597 19.4035 13.3545 19.4264 13.3545 19.4505ZM14.5173 18.9575C14.5069 18.9897 14.4924 19.0193 14.4738 19.0464C14.4552 19.0735 14.4337 19.0969 14.4093 19.1164C14.3849 19.1361 14.357 19.1514 14.3256 19.1624C14.2942 19.1735 14.2605 19.178 14.2245 19.1761C14.2279 19.1861 14.2329 19.2014 14.2393 19.222C14.2457 19.2426 14.2518 19.2651 14.2577 19.2897C14.2635 19.3143 14.2687 19.3395 14.2734 19.365C14.278 19.3907 14.2804 19.414 14.2804 19.4351C14.2804 19.5145 14.263 19.5913 14.2281 19.6656C14.1933 19.7399 14.1442 19.8059 14.0809 19.8637C14.0175 19.9215 13.9417 19.968 13.8534 20.0031C13.7651 20.0384 13.6679 20.0559 13.5622 20.0559C13.5145 20.0559 13.4646 20.0514 13.4123 20.0425C13.36 20.0334 13.3111 20.0189 13.2658 19.9988C13.2646 19.9988 13.2594 20.002 13.2501 20.0086C13.2408 20.0151 13.2309 20.0239 13.2204 20.0349C13.21 20.0461 13.2004 20.0588 13.1917 20.0734C13.183 20.0879 13.1786 20.1033 13.1786 20.1193C13.1787 20.1414 13.1891 20.1565 13.21 20.1645C13.231 20.1726 13.2594 20.1766 13.2955 20.1766C13.3222 20.1766 13.3522 20.175 13.3853 20.172C13.4184 20.169 13.4533 20.1654 13.4899 20.1614C13.5265 20.1574 13.5646 20.1539 13.6041 20.1508C13.6436 20.1478 13.6831 20.1463 13.7227 20.1463C13.7703 20.1463 13.8194 20.15 13.87 20.1575C13.9206 20.165 13.97 20.1768 14.0182 20.1929C14.0664 20.2089 14.1121 20.2295 14.1551 20.2546C14.1981 20.2797 14.2359 20.3098 14.2685 20.3449C14.301 20.3801 14.3266 20.421 14.3453 20.4677C14.3638 20.5144 14.3731 20.5668 14.3731 20.6251C14.3732 20.6783 14.3578 20.7371 14.327 20.8013C14.2963 20.8656 14.2512 20.9259 14.192 20.9822C14.1327 21.0384 14.0604 21.0854 13.9749 21.123C13.8895 21.1607 13.7921 21.1796 13.6829 21.1797C13.6038 21.1797 13.5199 21.1711 13.4309 21.1541C13.342 21.137 13.2531 21.116 13.1642 21.0909C13.0752 21.0658 12.9889 21.039 12.9052 21.0105C12.8215 20.9818 12.7454 20.956 12.6768 20.9329L12.797 20.713C12.8167 20.6758 12.8484 20.6452 12.892 20.621C12.9356 20.5969 12.9835 20.5848 13.0359 20.5848C13.0742 20.5848 13.1149 20.5906 13.1579 20.6021C13.2009 20.6136 13.246 20.6267 13.293 20.6412C13.3401 20.6558 13.3887 20.6688 13.4386 20.6804C13.4886 20.6919 13.5398 20.6977 13.592 20.6976C13.6235 20.6976 13.6525 20.6946 13.6792 20.6885C13.7059 20.6825 13.7289 20.6745 13.7481 20.6645C13.7673 20.6544 13.7824 20.6431 13.7934 20.6305C13.8045 20.618 13.81 20.6051 13.81 20.5921C13.81 20.569 13.7899 20.5482 13.7498 20.5296C13.7097 20.511 13.6431 20.5018 13.5502 20.5018C13.5013 20.5018 13.4502 20.5034 13.3967 20.5064C13.3433 20.5094 13.2897 20.511 13.2363 20.511C13.1771 20.511 13.1197 20.5058 13.0646 20.4952C13.0093 20.4847 12.9608 20.4661 12.919 20.4395C12.8771 20.4129 12.8437 20.377 12.8187 20.3319C12.7937 20.2867 12.7812 20.2294 12.7811 20.1601C12.7811 20.1421 12.7863 20.1195 12.7968 20.0923C12.8073 20.0652 12.8226 20.0366 12.8429 20.0065C12.8633 19.9764 12.8877 19.947 12.9162 19.9183C12.9446 19.8897 12.9774 19.8648 13.0147 19.8437C12.9553 19.7745 12.9127 19.7079 12.8864 19.6442C12.8602 19.5804 12.8472 19.5164 12.8472 19.4522C12.8471 19.3668 12.8654 19.2864 12.902 19.2111C12.9386 19.1358 12.9885 19.07 13.0519 19.0137C13.1152 18.9575 13.1902 18.913 13.2767 18.8804C13.3633 18.8477 13.4566 18.8313 13.5566 18.8313C13.6228 18.8312 13.6859 18.8391 13.7458 18.8546C13.8056 18.8702 13.8617 18.8904 13.9141 18.9155C13.9256 18.9115 13.942 18.9075 13.9628 18.9034C13.9838 18.8994 14.0065 18.8959 14.0309 18.8929C14.0553 18.8899 14.08 18.8876 14.105 18.8861C14.13 18.8846 14.1529 18.8838 14.1738 18.8838C14.2227 18.8838 14.2677 18.8878 14.3089 18.8958C14.3502 18.9038 14.3866 18.9123 14.418 18.9214C14.4539 18.9324 14.4871 18.9444 14.5173 18.9575Z" fill="white"/>
<path d="M15.9448 20.4351C15.9204 20.412 15.9023 20.3824 15.8907 20.3462C15.8791 20.3101 15.8732 20.2729 15.8732 20.2347V20.2151C15.8732 20.2091 15.8738 20.2026 15.875 20.1956C15.861 20.2307 15.8369 20.2641 15.8027 20.2958C15.7684 20.3274 15.728 20.3553 15.6815 20.3794C15.635 20.4035 15.5841 20.4226 15.5289 20.4367C15.4738 20.4508 15.4176 20.4578 15.3607 20.4578C15.2515 20.4579 15.1541 20.4408 15.0687 20.4067C14.9832 20.3726 14.9108 20.3245 14.8515 20.2622C14.7922 20.1999 14.7469 20.1244 14.7155 20.0355C14.684 19.9467 14.6683 19.8475 14.6683 19.738L14.668 18.8538L15.2382 18.8536L15.2384 19.7152C15.2384 19.7715 15.2446 19.8165 15.2568 19.8501C15.269 19.8837 15.2847 19.9093 15.3039 19.9269C15.3231 19.9445 15.3434 19.956 15.3649 19.9615C15.3864 19.967 15.4071 19.9698 15.4268 19.9697C15.4768 19.9697 15.5247 19.9647 15.5706 19.9546C15.6166 19.9446 15.657 19.9303 15.6918 19.9117C15.7267 19.8931 15.7545 19.8708 15.7755 19.8446C15.7964 19.8185 15.8068 19.7889 15.8068 19.7558L15.8065 18.8534L16.3767 18.8533L16.3772 20.4349L15.9448 20.4351Z" fill="white"/>
<path d="M18.0135 19.47C17.9926 19.4328 17.9664 19.3997 17.935 19.3706C17.9082 19.3455 17.8731 19.3226 17.8295 19.302C17.7859 19.2815 17.7327 19.2712 17.67 19.2712C17.6037 19.2713 17.5485 19.2831 17.5043 19.3067C17.4601 19.3303 17.4247 19.3562 17.398 19.3843C17.3678 19.4174 17.3439 19.4546 17.3265 19.4958C17.3335 19.4918 17.3416 19.4878 17.3509 19.4837C17.359 19.4807 17.3683 19.4777 17.3788 19.4747C17.3893 19.4716 17.4009 19.4701 17.4137 19.4701L18.0135 19.47ZM18.5994 19.5586C18.5994 19.6058 18.5883 19.6463 18.5663 19.6799C18.5442 19.7135 18.5163 19.7409 18.4826 19.762C18.4489 19.7831 18.412 19.7985 18.3719 19.808C18.3318 19.8175 18.2931 19.8223 18.2559 19.8223L17.3528 19.8226C17.3656 19.8588 17.3859 19.891 17.4139 19.9191C17.4371 19.9431 17.4688 19.9652 17.5089 19.9853C17.549 20.0054 17.601 20.0154 17.665 20.0153C17.6986 20.0153 17.7309 20.0109 17.7617 20.0018C17.7925 19.9928 17.823 19.9829 17.8533 19.9724C17.8835 19.9618 17.9145 19.952 17.9465 19.943C17.9784 19.9339 18.013 19.9294 18.0502 19.9294C18.1049 19.9294 18.1525 19.9371 18.1932 19.9527C18.2339 19.9682 18.2717 19.991 18.3066 20.0212L18.4513 20.1462C18.341 20.2497 18.2189 20.3273 18.0853 20.379C17.9516 20.4308 17.815 20.4567 17.6756 20.4567C17.5454 20.4568 17.4227 20.4355 17.3077 20.3928C17.1926 20.3502 17.0923 20.2919 17.0068 20.2182C16.9214 20.1444 16.8536 20.0581 16.8036 19.9592C16.7536 19.8603 16.7286 19.7551 16.7285 19.6436C16.7285 19.5321 16.7534 19.4269 16.8034 19.328C16.8533 19.2291 16.921 19.1427 17.0064 19.0689C17.0918 18.995 17.1921 18.9367 17.3071 18.894C17.4222 18.8513 17.5448 18.8299 17.675 18.8298C17.7831 18.8298 17.8872 18.8466 17.9871 18.8802C18.0871 18.9138 18.1778 18.9592 18.2592 19.0165C18.3406 19.0737 18.4103 19.1407 18.4684 19.2175C18.5266 19.2943 18.5673 19.3754 18.5906 19.4607C18.5952 19.4768 18.5978 19.4947 18.5985 19.5142C18.5991 19.5338 18.5994 19.5486 18.5994 19.5586Z" fill="white"/>
<path d="M19.4298 18.852C19.4437 18.8651 19.4545 18.8801 19.4621 18.8972C19.4696 18.9142 19.4751 18.9303 19.4786 18.9454C19.4832 18.9635 19.485 18.9815 19.4839 18.9996C19.5001 18.9715 19.5234 18.9469 19.5536 18.9258C19.5838 18.9046 19.6169 18.8873 19.653 18.8738C19.689 18.8602 19.7262 18.8499 19.7645 18.8429C19.8029 18.8358 19.8384 18.8323 19.8709 18.8323C19.972 18.8323 20.0993 18.8588 20.2528 18.912L20.2127 19.1108C20.2046 19.15 20.1892 19.1826 20.1666 19.2087C20.1439 19.2349 20.1169 19.2557 20.0855 19.2713C20.0541 19.2869 20.0198 19.2979 19.9826 19.3045C19.9454 19.311 19.9077 19.3143 19.8693 19.3143C19.8298 19.3143 19.792 19.3188 19.756 19.3279C19.7199 19.3369 19.688 19.3488 19.6601 19.3633C19.6322 19.3779 19.6087 19.3945 19.5895 19.413C19.5703 19.4317 19.5584 19.4505 19.5538 19.4696L19.5541 20.4336L18.9839 20.4338L18.9834 18.8522L19.4298 18.852Z" fill="white"/>
<path d="M20.7545 19.6441C20.7545 19.6874 20.7641 19.7283 20.7833 19.7669C20.8025 19.8055 20.8287 19.8392 20.8618 19.8678C20.895 19.8964 20.9339 19.919 20.9787 19.9355C21.0234 19.9521 21.0708 19.9603 21.1208 19.9603C21.1708 19.9603 21.2181 19.9521 21.2629 19.9355C21.3077 19.9189 21.3469 19.8962 21.3805 19.8676C21.4143 19.839 21.4407 19.8053 21.4598 19.7667C21.4791 19.728 21.4886 19.6871 21.4886 19.6439C21.4886 19.6007 21.479 19.5598 21.4598 19.5211C21.4406 19.4825 21.4141 19.4486 21.3804 19.4195C21.3467 19.3904 21.3074 19.3675 21.2627 19.351C21.2179 19.3344 21.1706 19.3262 21.1206 19.3262C21.0705 19.3262 21.0232 19.3345 20.9785 19.351C20.9337 19.3676 20.8948 19.3905 20.8617 19.4196C20.8286 19.4488 20.8024 19.4827 20.7833 19.5213C20.7641 19.56 20.7545 19.6009 20.7545 19.6441ZM20.1826 19.6428C20.1826 19.5313 20.2073 19.4261 20.2567 19.3272C20.306 19.2283 20.3734 19.1419 20.4588 19.0681C20.5442 18.9943 20.6442 18.9359 20.7586 18.8932C20.8731 18.8505 20.9949 18.8291 21.1239 18.8291C21.2529 18.829 21.3747 18.8503 21.4892 18.893C21.6037 18.9357 21.7037 18.9938 21.7892 19.0676C21.8747 19.1414 21.942 19.2278 21.9915 19.3266C22.041 19.4255 22.0657 19.5307 22.0657 19.6422C22.0657 19.7537 22.0411 19.8589 21.9917 19.9578C21.9423 20.0568 21.8749 20.1431 21.7896 20.2169C21.7041 20.2908 21.6042 20.3491 21.4897 20.3918C21.3752 20.4345 21.2535 20.4559 21.1245 20.4559C20.9954 20.456 20.8736 20.4347 20.7591 20.392C20.6446 20.3494 20.5446 20.2911 20.4592 20.2174C20.3737 20.1436 20.3063 20.0573 20.2568 19.9584C20.2074 19.8595 20.1827 19.7543 20.1826 19.6428Z" fill="white"/>
<path d="M22.498 19.9314C22.5247 19.9193 22.5532 19.9095 22.5835 19.9019C22.6137 19.8944 22.6456 19.8906 22.6793 19.8906C22.7188 19.8906 22.7566 19.9019 22.7926 19.9245C22.8287 19.947 22.8688 19.9709 22.913 19.996C22.9235 20.002 22.9365 20.0068 22.9523 20.0103C22.968 20.0138 22.9827 20.0156 22.9967 20.0156C23.0106 20.0156 23.0246 20.0133 23.0385 20.0088C23.0525 20.0042 23.065 19.9982 23.076 19.9907C23.0871 19.9831 23.0963 19.9738 23.1039 19.9628C23.1114 19.9517 23.1152 19.9402 23.1152 19.9281V19.9206C23.1141 19.9106 23.1106 19.9013 23.1048 19.8927C23.0989 19.8842 23.089 19.8762 23.0751 19.8687C23.0611 19.8611 23.0426 19.8531 23.0193 19.8445C22.9961 19.836 22.967 19.8263 22.9321 19.8152C22.8659 19.7951 22.8004 19.7723 22.7359 19.7467C22.6714 19.7211 22.6139 19.689 22.5633 19.6504C22.5127 19.6118 22.4718 19.5653 22.4403 19.5111C22.4089 19.4569 22.3932 19.3911 22.3932 19.3138C22.3931 19.2455 22.4108 19.182 22.4463 19.1232C22.4817 19.0644 22.5288 19.0135 22.5875 18.9703C22.6462 18.9271 22.7127 18.8931 22.7871 18.8685C22.8615 18.8439 22.9376 18.8316 23.0155 18.8315C23.0678 18.8315 23.1186 18.8378 23.168 18.8503C23.2174 18.8629 23.2637 18.8787 23.3067 18.8977C23.3497 18.9168 23.3895 18.9379 23.4262 18.9609C23.4628 18.984 23.4948 19.0059 23.5221 19.0265C23.5494 19.047 23.5715 19.0656 23.5884 19.0822C23.6052 19.0987 23.6159 19.1095 23.6206 19.1145L23.4916 19.2336C23.4579 19.2577 23.4266 19.2763 23.3975 19.2894C23.3684 19.3025 23.3359 19.3089 23.2998 19.309C23.2742 19.309 23.2539 19.3062 23.2388 19.3007C23.2237 19.2952 23.208 19.2892 23.1918 19.2826C23.1754 19.2761 23.1566 19.2701 23.1351 19.2646C23.1136 19.2591 23.0836 19.2563 23.0452 19.2563C23.015 19.2563 22.9903 19.2644 22.9711 19.2804C22.952 19.2966 22.9424 19.3151 22.9424 19.3362C22.9424 19.3473 22.9442 19.3575 22.9477 19.3671C22.9512 19.3766 22.9581 19.3839 22.9686 19.3889C22.9861 19.3979 23.002 19.4047 23.0165 19.4092C23.0311 19.4137 23.0467 19.4177 23.0636 19.4213C23.0805 19.4248 23.1003 19.429 23.1229 19.4341C23.1456 19.4391 23.1738 19.4461 23.2075 19.4551C23.2738 19.4732 23.3353 19.4927 23.3923 19.5138C23.4493 19.5349 23.4987 19.5617 23.5405 19.5944C23.5824 19.627 23.6152 19.6681 23.6391 19.7178C23.6629 19.7675 23.6749 19.83 23.6749 19.9054C23.6749 19.9787 23.6584 20.0484 23.6253 20.1148C23.5922 20.1811 23.5454 20.239 23.485 20.2888C23.4245 20.3385 23.3528 20.3782 23.2697 20.4078C23.1866 20.4375 23.0956 20.4523 22.9968 20.4524C22.9294 20.4524 22.8626 20.4424 22.7963 20.4223C22.7301 20.4023 22.6667 20.3736 22.6062 20.3365C22.5458 20.2994 22.4896 20.254 22.438 20.2002C22.3862 20.1465 22.3411 20.086 22.3027 20.0188L22.498 19.9314Z" fill="white"/>
<path d="M17.221 16.6569C17.3514 16.5787 17.501 16.5255 17.6575 16.5024C17.938 16.4609 18.2129 16.5076 18.4425 16.6282C18.5504 16.6849 18.6436 16.7602 18.7232 16.8449L19.0255 17.1647L18.6774 17.3982L18.346 17.0628C18.2247 16.9579 18.0642 16.8898 17.8929 16.8823C17.684 16.8732 17.4868 16.9456 17.3491 17.0823C17.1347 17.2951 17.1311 17.6194 17.3414 17.8353C17.4718 17.9693 17.6582 18.0439 17.8579 18.0438C18.0375 18.0437 18.2601 17.9605 18.3871 17.8507L19.8926 16.7727C20.1522 16.5482 20.5163 16.4465 20.8903 16.5015C21.0468 16.5245 21.1965 16.5776 21.3269 16.6557C21.9828 17.0482 21.983 17.8747 21.3275 18.2677C21.197 18.3459 21.0475 18.3991 20.891 18.4222C20.517 18.4774 20.1529 18.376 19.893 18.1516L19.8744 18.1356L19.6934 18.292L19.6934 17.9793V17.8612L19.6933 17.6999L19.8801 17.6998L20.0147 17.6997L20.3788 17.6995L20.1968 17.8569L20.2024 17.8617C20.3238 17.9665 20.4841 18.0347 20.6556 18.0423C20.8644 18.0514 21.0616 17.979 21.1994 17.8423C21.4138 17.6295 21.4174 17.3052 21.2072 17.0893C21.0767 16.9553 20.8903 16.8807 20.6907 16.8808C20.511 16.8808 20.3252 16.9578 20.1982 17.0677L18.6559 18.1519C18.3962 18.3764 18.0321 18.4781 17.6581 18.4231C17.5016 18.4 17.3519 18.3469 17.2214 18.2688C16.5657 17.8762 16.5655 17.0499 17.221 16.6569Z" fill="#CF1181"/>
</svg>
