<?xml version="1.0" encoding="UTF-8"?>
<svg width="30px" height="39px" viewBox="0 0 30 39" version="1.1" xmlns="http://www.w3.org/2000/svg" xmlns:xlink="http://www.w3.org/1999/xlink">
    <title>pin_sponsor copy</title>
    <defs>
        <polygon id="path-1" points="0 0 23.9661772 0 23.9661772 13 0 13"></polygon>
    </defs>
    <g id="Programas" stroke="none" stroke-width="1" fill="none" fill-rule="evenodd">
        <g id="pin_sponsor-copy">
            <ellipse id="Oval" fill-opacity="0.5" fill="#000000" fill-rule="nonzero" cx="15.0372381" cy="37.3338325" rx="3.62967816" ry="1.0370509"></ellipse>
            <path d="M15,-1.42108547e-14 C23.2842712,-1.42108547e-14 30,6.44525219 30,14.3958737 C30,14.5808366 29.9939114,14.7673959 29.9817341,14.9555518 C29.9938269,15.2156405 30,15.4777049 30,15.7412824 C30,24.4349527 16.5553688,37.4292716 15,37.4292716 C13.4446312,37.4292716 3.01980663e-14,24.4349527 3.01980663e-14,15.7412824 C3.01980663e-14,15.4777049 0.00617310263,15.2156405 0.0183758629,14.9552396 C0.0060886296,14.7673959 3.01980663e-14,14.5808366 3.01980663e-14,14.3958737 C3.01980663e-14,6.44525219 6.71572875,-1.42108547e-14 15,-1.42108547e-14 Z" id="Combined-Shape-Copy" fill="#FFFFFF" fill-rule="nonzero"></path>
            <g id="corona-cerveza-seeklogo.com-copy-2" transform="translate(2.500000, 6.000000)">
                <g id="Group-5">
                    <mask id="mask-2" fill="white">
                        <use xlink:href="#path-1"></use>
                    </mask>
                    <g id="Clip-2"></g>
                    <path d="M23.2040679,11.2878049 L22.5342024,10.6837163 C22.5301759,10.6796842 22.5235871,10.6771183 22.5169982,10.6774848 C22.5100434,10.6774848 22.5038206,10.6804173 22.499062,10.684816 L21.9078965,11.2889046 C21.7834406,11.1903003 21.0462225,10.6258001 20.3646435,10.5264627 C20.3855082,10.5015367 20.4133277,10.4696461 20.4319961,10.4465529 C20.4964203,10.3629776 20.524972,10.3233893 20.5257041,10.321923 C20.5282664,10.3182574 20.5297306,10.3138587 20.5297306,10.3087269 L20.5297306,7.97411532 C20.5297306,7.96935006 20.5282664,7.96385168 20.5242399,7.95981954 C20.4869031,7.91583251 20.3899007,7.78680389 20.3880705,7.70946003 C20.5110622,7.68783307 21.1955696,7.55623855 21.8313927,7.19627802 C21.9258328,7.22816862 22.6096081,7.45800085 23.3047308,7.67280417 L23.3047308,10.1760327 C23.3047308,10.2596081 23.4127146,10.4773439 23.6788305,10.5172987 C23.8300078,10.5392923 23.9185911,10.5528549 23.9661772,10.5598195 L23.2040679,11.2878049 Z M21.4873088,10.0268434 C21.4873088,10.0356408 21.4924335,10.0451713 21.5030488,10.0484703 C21.5074414,10.0499366 21.9448672,10.2060905 22.2549088,10.4355562 C22.2629618,10.4410546 22.272479,10.4421542 22.2816302,10.4381221 C22.2896832,10.4344565 22.2951739,10.4260257 22.2951739,10.4168617 L22.2951739,8.10461018 C22.2951739,8.09507966 22.2885851,8.08554913 22.2787018,8.08261666 C21.9390105,7.96861695 21.5616163,7.83225715 21.5301363,7.8043987 C21.5231814,7.79706753 21.5129321,7.79450162 21.5030488,7.79743409 C21.4924335,7.80073312 21.4873088,7.80989708 21.4873088,7.8194276 L21.4873088,10.0268434 Z M20.0882782,10.5678838 C19.5816696,10.8614973 19.3697285,11.1569435 19.303474,11.2672776 C19.2456387,11.1554772 19.0563925,10.8596645 18.5541764,10.5675173 L18.7847858,10.5675173 C18.7979635,10.5675173 18.8089449,10.5572536 18.8089449,10.5444241 L18.8089449,8.10461018 C18.8089449,8.09691245 18.8056505,8.09031439 18.7994277,8.08554913 L18.4465587,7.83775553 C18.4388717,7.83225715 18.4282563,7.8318906 18.4198372,7.83665586 L17.9615467,8.0840829 C17.9531277,8.0884816 17.9491012,8.09581277 17.9491012,8.10461018 L17.9491012,10.5444241 C17.9491012,10.5572536 17.9604486,10.5675173 17.9732602,10.5675173 L18.2027715,10.5675173 C17.6921364,10.8640632 17.4809274,11.1620753 17.4168692,11.2698435 C17.3535431,11.1620753 17.1416021,10.8629635 16.631699,10.566051 L16.8615763,10.5675173 C16.8685312,10.5675173 16.8740219,10.5656845 16.8791466,10.5609192 C16.8831731,10.5565205 16.8861015,10.550289 16.8861015,10.5444241 L16.8861015,8.12513746 C16.8861015,7.9920767 16.7638419,7.73145355 16.482718,7.67537008 L17.2722808,7.21497251 C17.3561055,7.26262512 17.8275736,7.53497815 17.9044435,7.65154378 C17.9070058,7.65594248 17.9110323,7.65924151 17.916157,7.66144086 C17.9340932,7.66803891 18.1130901,7.71752432 18.8276133,7.27105597 L18.9381594,7.19627802 C19.0362599,7.2530946 19.6149798,7.59399408 19.9345386,7.71092627 C19.9411274,7.71349218 19.9436898,7.72155646 19.9436898,7.73548569 C19.9436898,7.80403214 19.8646237,7.94662343 19.8342418,7.99610884 C19.8320455,8.00014098 19.8309474,8.00344001 19.8309474,8.00783871 L19.8331437,10.5444241 C19.8331437,10.5572536 19.8444911,10.5678838 19.8580348,10.5678838 L20.0882782,10.5678838 Z M16.2184322,10.5543212 C15.989653,10.5975751 15.2129019,10.7735232 14.7169086,11.2859721 C14.6114871,11.1745383 14.0627831,10.6514592 12.9192531,10.5242634 C12.9327968,10.5015367 12.9554917,10.4670802 12.9833113,10.4340899 C13.1370509,10.2486113 13.1904937,10.2200197 13.1915919,10.2192866 C13.200377,10.2148879 13.2055016,10.2068236 13.2055016,10.1983928 L13.2055016,7.97411532 C13.2055016,7.96935006 13.2040375,7.96385168 13.2000109,7.95981954 C13.1623081,7.91656563 13.067136,7.78863668 13.0634755,7.71092627 C13.2069658,7.69919639 14.0287407,7.6185535 14.5617048,7.19774425 C14.6857946,7.25052869 15.5880998,7.62698435 16.1964694,7.70542789 C16.1422945,7.75711265 16.0507828,7.85974905 16.0507828,7.95542084 L16.0507828,10.2486113 C16.0507828,10.2918652 16.0958066,10.4645143 16.2184322,10.5543212 L16.2184322,10.5543212 Z M14.1444115,10.130946 C14.1444115,10.1364444 14.1466078,10.1423093 14.1506343,10.146708 C14.156491,10.1529395 14.305106,10.3050613 15.0112101,10.4388552 C15.0192632,10.4403214 15.0262181,10.4381221 15.0317088,10.4340899 C15.0375655,10.4296912 15.0404939,10.4227266 15.0404939,10.4161286 L15.0404939,8.10790921 C15.0404939,8.09874524 15.0350032,8.09031439 15.025486,8.08628225 C14.4870312,7.87367827 14.1945599,7.77763993 14.1572231,7.80073312 C14.1506343,7.80513182 14.1444115,7.81612858 14.1444115,7.82345975 L14.1444115,10.130946 Z M12.9291364,7.72998731 C12.8943619,7.83592274 12.8109033,8.00197378 12.6201929,8.07895108 C12.3906816,8.17059072 12.0744173,8.11230791 11.6794529,7.90483575 C11.6776226,7.90410264 11.6746942,7.90336952 11.672864,7.9026364 C11.6673733,7.90153673 11.5370607,7.87477795 11.468976,7.92719583 C11.4418885,7.94772311 11.4279788,7.97741435 11.4279788,8.01443677 L11.4279788,10.5444241 C11.4279788,10.5572536 11.4389602,10.5675173 11.4525039,10.5675173 L11.6820152,10.5675173 C11.17138,10.8640632 10.9609031,11.1620753 10.8964789,11.2698435 C10.8320547,11.1624418 10.6215778,10.8640632 10.1124068,10.5678838 L10.34082,10.5697166 C10.3474088,10.5697166 10.3536316,10.5675173 10.3583902,10.5634851 C10.3624167,10.5590864 10.3657112,10.5528549 10.3657112,10.5473565 L10.3657112,8.12513746 C10.3657112,7.9920767 10.2427195,7.73072043 9.96232767,7.67537008 L10.7815402,7.19701114 C10.8631687,7.24356408 11.3068173,7.50015508 11.4052839,7.62221909 C11.4049178,7.62405188 11.4049178,7.62551812 11.4049178,7.62735091 C11.4049178,7.63578176 11.4096764,7.64384605 11.4177294,7.64824475 C11.4356657,7.65740871 11.4407904,7.65997462 12.0659982,7.26922318 L12.1721517,7.1973777 C12.2512178,7.27985338 12.6187287,7.64897787 12.9291364,7.72998731 L12.9291364,7.72998731 Z M9.67278471,10.5543212 C9.4447376,10.5975751 8.66798645,10.7735232 8.17199313,11.2859721 C8.06657168,11.1745383 7.51786764,10.6514592 6.37433767,10.5242634 C6.38824744,10.5015367 6.4098442,10.4678133 6.43766375,10.4340899 C6.59213547,10.2486113 6.6448462,10.2200197 6.64704248,10.2192866 C6.65472946,10.2148879 6.66022016,10.2068236 6.66022016,10.1983928 L6.66022016,7.97411532 C6.66022016,7.96935006 6.65838993,7.96385168 6.65472946,7.95981954 C6.61702665,7.91656563 6.52258659,7.78863668 6.51782798,7.71092627 C6.66278249,7.69919639 7.48345925,7.6185535 8.01605723,7.19774425 C8.14051312,7.25052869 9.04281829,7.62698435 9.651554,7.70542789 C9.59737908,7.75711265 9.50550135,7.85974905 9.50550135,7.95542084 L9.50550135,10.2486113 C9.50550135,10.2918652 9.55015905,10.4645143 9.67278471,10.5543212 L9.67278471,10.5543212 Z M7.59949606,10.130946 C7.59949606,10.1364444 7.60169234,10.1423093 7.60571885,10.146708 C7.61120955,10.1529395 7.76055662,10.3050613 8.46666075,10.4388552 C8.47361564,10.4403214 8.48093657,10.4381221 8.48679332,10.4340899 C8.49265007,10.4296912 8.49557844,10.4227266 8.49557844,10.4161286 L8.49557844,8.10790921 C8.49557844,8.09874524 8.48972169,8.09031439 8.48020448,8.08628225 C7.9413837,7.87367827 7.64927841,7.77763993 7.61230769,7.80146623 C7.6053528,7.80513182 7.59949606,7.81612858 7.59949606,7.82345975 L7.59949606,10.130946 Z M7.43038247,6.38325109 C7.0804418,6.74137882 6.49110657,6.78096715 6.2476855,6.78096715 C6.16056638,6.78096715 6.10639147,6.77620189 6.10639147,6.77620189 C6.09907053,6.77546877 6.09211564,6.77840124 6.08662494,6.78206683 C6.08186634,6.78646553 6.07893796,6.79343014 6.07893796,6.79966164 L6.07893796,11.2434513 C6.07893796,11.2518821 6.08296448,11.2588468 6.08991936,11.2632455 C6.0972403,11.2676442 6.10639147,11.2683773 6.1137124,11.2650782 C6.11481054,11.2643451 6.27257668,11.197998 6.37653395,11.1646412 C6.38495302,11.1620753 6.39373815,11.1609756 6.40215722,11.1609756 C6.44535073,11.1609756 6.47207214,11.1987311 6.47207214,11.2335542 C6.47207214,11.2496828 6.46731354,11.2731425 6.44169027,11.291837 C6.35457115,11.3585507 6.09028541,11.5506274 6.08772308,11.5520936 C6.08186634,11.5564923 6.07783982,11.5630904 6.07783982,11.5707881 L6.07783982,12.6396729 C6.07783982,12.8383477 5.86736295,13 5.60893397,13 C5.35050498,13 5.14002811,12.8383477 5.14002811,12.6396729 C5.14002811,12.4409982 5.34977289,12.2786127 5.60820187,12.2786127 C5.60820187,12.2786127 5.61442467,12.2789793 5.6224777,12.2789793 C5.70190983,12.2789793 5.70996286,12.2419569 5.70996286,12.2261948 L5.70996286,11.7526012 C5.70996286,11.7445369 5.70520426,11.7368391 5.69788332,11.7320739 C5.69019634,11.7280417 5.68141122,11.7280417 5.67335819,11.7317073 C4.7834986,12.196137 3.60922071,12.2096997 3.47744389,12.2096997 L3.47122109,12.2096997 C1.38219243,12.2096997 -0.0219628035,11.0062879 -0.0219628035,9.214183 C-0.0219628035,8.33774144 0.464879341,7.43490766 1.31337565,6.73771324 C2.10989332,6.08303962 3.13043159,5.68972226 4.04701259,5.68275765 L4.04701259,5.75973495 C3.45804341,5.96060905 3.06747156,6.28831242 3.06381109,6.29124489 C1.99971326,7.1654871 1.78191546,7.85278444 1.78191546,8.61485972 C1.78191546,8.74645425 1.7885043,8.88831242 1.80314617,9.04849852 C1.90271088,10.1536726 3.10993298,10.9032849 3.12201252,10.9106161 C3.13152973,10.9168476 3.14470741,10.9157479 3.15276044,10.9076836 L3.4532848,10.6228676 C3.45804341,10.6181024 3.45987364,10.612604 3.45987364,10.6063725 L3.45987364,7.1354293 C3.45987364,7.13286339 3.45987364,7.12956436 3.4587755,7.12736501 L3.36213917,6.88323699 C4.79081954,6.52767517 5.76999453,5.59954885 5.93764393,5.43239814 C6.33370648,6.22929649 7.21148653,6.36235725 7.43038247,6.38325109 L7.43038247,6.38325109 Z M3.64070073,11.1763711 C3.64070073,11.1837022 3.64326305,11.1903003 3.64985189,11.1943324 C3.6608333,11.203863 3.93866276,11.4146341 4.85927027,11.4146341 C5.10854809,11.4146341 5.38564546,11.3985056 5.68214331,11.3673481 C5.69495495,11.3658819 5.70374007,11.3559848 5.70374007,11.3442549 L5.70374007,6.74907655 C5.70374007,6.74137882 5.7000796,6.73368109 5.69239262,6.73001551 C5.6726261,6.71755252 5.19456907,6.43493585 5.02508944,6.43456929 C5.00239454,6.43456929 4.9848243,6.43933456 4.97201267,6.44886508 C4.96139731,6.45692937 4.94821963,6.47159171 4.94821963,6.49798393 L4.94821963,10.1089525 L3.64948585,11.1587763 C3.64326305,11.163175 3.64070073,11.1694065 3.64070073,11.1763711 L3.64070073,11.1763711 Z" id="Fill-1" fill="#19598E" mask="url(#mask-2)"></path>
                    <path d="M17.8235471,2.40205837 C17.7452131,2.38043141 17.6888419,2.38043141 17.6441842,2.41268857 C17.4538399,2.55088115 17.2858245,2.63592274 17.1518514,2.64728606 C17.0171462,2.6575497 16.9161173,2.70080361 16.8498628,2.78474552 L16.7151576,2.90167771 C16.7030781,2.92293811 16.6467069,2.9548287 16.4677101,2.97645566 C16.4343998,2.9973495 16.3333709,3.05123361 16.3791268,3.10401805 C16.4343998,3.17842944 16.490771,3.26347103 16.5354287,3.3477795 C16.5797204,3.529226 16.5467762,3.72056958 16.3670472,3.90128296 C16.2996946,3.97606091 16.2103792,3.9973213 16.0983689,3.98595799 C16.0419977,3.97606091 15.9750112,3.94307063 15.9750112,3.879656 C15.9867247,3.81587481 16.0086875,3.76309037 16.0760401,3.72056958 C16.1884164,3.58164387 16.1884164,3.4654448 16.0646926,3.35877626 C15.9750112,3.31662202 15.8853297,3.31662202 15.7956483,3.35877626 C15.6162854,3.43355421 15.5946886,3.58164387 15.7066989,3.72056958 C15.7066989,3.76309037 15.6946194,3.81587481 15.6730226,3.879656 C15.628731,3.96543071 15.5489328,3.98595799 15.448636,3.97606091 C15.2813526,3.89065276 15.2030186,3.74182997 15.2253475,3.4867052 C15.3036815,3.36977302 15.3926308,3.26347103 15.4819462,3.17842944 C15.3816494,3.00834626 15.2359628,2.88041731 15.056966,2.79574228 C14.8779691,2.88041731 14.7319165,3.00834626 14.6312536,3.17842944 C14.7209351,3.27410123 14.798903,3.36977302 14.8439268,3.4867052 C14.8666217,3.63479487 14.8549082,3.78471733 14.7319165,3.92217679 C14.6206383,3.9973213 14.508628,4.03910898 14.3962516,3.97606091 C14.3171856,3.90128296 14.3171856,3.81587481 14.3629414,3.72056958 C14.4409093,3.60363739 14.4295619,3.4867052 14.3171856,3.3903003 C14.2282362,3.32725222 14.1158599,3.33788242 14.0375259,3.3903003 C13.9258816,3.476075 13.9372291,3.58164387 14.0265445,3.72056958 C14.0375259,3.77298745 14.0265445,3.826505 14.014831,3.85912872 C13.9258816,4.03910898 13.7908104,4.01821514 13.6341424,3.95406739 C13.3541166,3.69857606 13.365098,3.43355421 13.6897815,3.17842944 C13.7575001,3.09338785 13.724922,2.9973495 13.6008321,2.97645566 C13.365098,2.91267447 13.1634063,2.81700268 13.0287011,2.63592274 C12.895094,2.36980121 12.7160972,2.36980121 12.5810259,2.63592274 C12.4463207,2.80673904 12.2340136,2.91267447 12.0088949,2.97645566 C11.8851711,2.9973495 11.8518609,3.09338785 11.9085981,3.16706612 C12.244629,3.43355421 12.244629,3.68867898 11.9748526,3.95406739 C11.8185506,4.01821514 11.6838454,4.02847878 11.5948961,3.85912872 C11.5732993,3.81587481 11.5732993,3.77298745 11.5835486,3.70957282 C11.672864,3.58164387 11.6838454,3.4654448 11.5732993,3.3903003 C11.4832518,3.33788242 11.3818569,3.32725222 11.281194,3.3903003 C11.1695498,3.476075 11.1695498,3.60363739 11.2478838,3.72056958 C11.281194,3.80524461 11.281194,3.89065276 11.2145735,3.96543071 C11.0915818,4.02847878 10.990919,3.9973213 10.8781766,3.92217679 C10.7544528,3.77298745 10.7442035,3.63479487 10.7661663,3.4867052 C10.81119,3.35877626 10.889158,3.26347103 10.967492,3.16706612 C10.8781766,3.00834626 10.732856,2.88041731 10.5421457,2.78474552 C10.3737642,2.88041731 10.2284436,3.00834626 10.1157012,3.16706612 C10.2174622,3.26347103 10.3071437,3.35877626 10.3737642,3.4867052 C10.4074405,3.73046666 10.3294725,3.89065276 10.160725,3.96543071 C10.0498128,3.98595799 9.97111279,3.96543071 9.92645509,3.8690258 C9.91437555,3.81587481 9.90412624,3.76309037 9.90412624,3.72056958 C10.0161365,3.58201043 9.9813621,3.43355421 9.81444479,3.35877626 C9.7243973,3.31662202 9.6343498,3.31662202 9.534053,3.35877626 C9.42277479,3.4654448 9.41069525,3.58201043 9.5223395,3.72056958 C9.5896921,3.76309037 9.62300235,3.81587481 9.62300235,3.8690258 C9.6343498,3.94380375 9.56736325,3.97606091 9.5003767,3.98595799 C9.38873245,3.9973213 9.3100324,3.96543071 9.24194771,3.90128296 C9.05233551,3.72056958 9.01865921,3.529226 9.06295086,3.33824898 C9.10834066,3.25284083 9.16397976,3.17842944 9.2316984,3.10401805 C9.2763561,3.05123361 9.17532721,2.98708586 9.13066951,2.97645566 C8.95130661,2.94529818 8.89566751,2.92293811 8.89566751,2.90167771 L8.76169441,2.77411532 C8.68262832,2.70080361 8.58269756,2.6575497 8.45897377,2.64728606 C8.32426857,2.63592274 8.14490568,2.55088115 7.95382929,2.41268857 C7.90953763,2.38116453 7.85389853,2.38116453 7.78654593,2.40205837 C7.73017474,2.45557592 7.71955938,2.50909347 7.74225428,2.56187791 C8.43627887,3.14617228 8.67128087,3.82723812 8.72691997,4.17840124 L16.882441,4.17840124 C16.9391782,3.826505 17.1730821,3.14617228 17.8572234,2.57250811 C17.8908997,2.50872691 17.8799183,2.45557592 17.8235471,2.40205837" id="Fill-3" fill="#F8C338" mask="url(#mask-2)"></path>
                    <path d="M8.36782813,2.29612294 C8.58269756,2.34964049 8.79463861,2.41268857 8.97326942,2.51972367 C9.09735926,2.55088115 9.22035096,2.51972367 9.33236125,2.45557592 C9.82542619,2.08388552 10.3851116,1.7752432 11.046192,1.58426618 C11.1464888,1.55200902 11.2021279,1.58426618 11.1691837,1.67920485 C10.9118529,1.87091499 10.7211425,2.11467644 10.6094983,2.43431552 C10.6094983,2.52998731 10.6768509,2.57250811 10.8221714,2.56224447 C10.9341817,2.52998731 11.0242292,2.54025095 11.0915818,2.58313831 C11.1922447,2.60513182 11.2694805,2.57250811 11.3371992,2.42368532 C11.4049178,2.00910757 11.672864,1.7220922 12.0656321,1.51938531 C12.244995,1.49849147 12.3225969,1.57290286 12.3002681,1.73308896 C12.1542155,1.88007895 12.0425712,2.04063161 11.9982796,2.21108135 C12.0088949,2.37016777 12.0978443,2.42368532 12.244995,2.38043141 C12.3346765,2.38043141 12.401663,2.30602002 12.4584003,2.16856055 C12.6033548,1.91343578 12.9847755,1.91343578 13.130096,2.16856055 C13.1857351,2.30602002 13.2534538,2.38043141 13.3314217,2.38043141 C13.4884558,2.42368532 13.5781372,2.37016777 13.5894847,2.21108135 C13.544827,2.04063161 13.4320846,1.88007895 13.286398,1.73308896 C13.2644352,1.57290286 13.3431352,1.49849147 13.5221321,1.51938531 C13.9138021,1.7220922 14.1828464,2.00910757 14.250199,2.42368532 C14.3058381,2.57250811 14.3962516,2.60513182 14.485567,2.58313831 C14.5642671,2.54025095 14.6532164,2.52998731 14.7652267,2.56224447 C14.9112794,2.57250811 14.978632,2.52998731 14.978632,2.43431552 C14.8666217,2.11467644 14.6762774,1.87091499 14.4185805,1.67920485 C14.3845382,1.58426618 14.4409093,1.55200902 14.5415722,1.58426618 C15.2030186,1.7752432 15.7627041,2.08388552 16.2561351,2.45557592 C16.3670472,2.51972367 16.4911371,2.55088115 16.6133967,2.51972367 C16.7931256,2.41268857 16.9948173,2.34964049 17.2184719,2.29612294 C17.3535431,2.27486254 17.3978348,2.17845763 17.3645245,2.02963485 C17.2634956,1.89180883 17.117443,1.80676724 16.9161173,1.78550684 C16.8381493,1.79687015 16.7707968,1.7752432 16.7151576,1.7220922 C16.5921659,1.51938531 16.3670472,1.44534048 16.0646926,1.48786127 C15.9197381,1.32804173 15.7173143,1.29615113 15.5053732,1.30714789 C15.3146629,1.11580431 15.1008916,1.09491048 14.8776031,1.13669815 C14.6312536,0.988241929 14.4075991,0.935457493 14.2168888,1.03076272 C13.9031867,0.914197096 13.6341424,0.956351332 13.4101218,1.09491048 C13.3314217,0.935457493 13.2197775,0.817792189 13.0400485,0.754010997 L13.0400485,0.563033977 L13.3314217,0.563033977 L13.3314217,0.286648809 L13.0400485,0.286648809 L13.0400485,0 L12.5477157,0 L12.5477157,0.286648809 L12.2563425,0.286648809 L12.2563425,0.563033977 L12.5477157,0.563033977 L12.5477157,0.754010997 C12.3679867,0.817792189 12.244995,0.935457493 12.1776424,1.09491048 C11.9415423,0.956351332 11.6842115,0.914197096 11.3712415,1.03076272 C11.1691837,0.935457493 10.9458952,0.988241929 10.7101611,1.13669815 C10.4865066,1.09491048 10.2734674,1.11580431 10.082391,1.30714789 C9.85910249,1.29651769 9.66912424,1.32877485 9.52270555,1.48786127 C9.22035096,1.44570704 8.99596431,1.51938531 8.87260657,1.7220922 C8.81696746,1.7752432 8.74961487,1.79687015 8.67128087,1.78550684 C8.46995517,1.80676724 8.32426857,1.89180883 8.22250758,2.02963485 C8.18956338,2.17919075 8.23458712,2.27486254 8.36782813,2.29612294 M12.8054126,0.90283378 C12.9620806,0.90283378 13.0850723,1.05165656 13.0850723,1.2433667 C13.0850723,1.43507684 12.9620806,1.59452982 12.8054126,1.59452982 C12.6487446,1.59452982 12.5144054,1.43507684 12.5144054,1.2433667 C12.5144054,1.05165656 12.6487446,0.90283378 12.8054126,0.90283378" id="Fill-4" fill="#F8C338" mask="url(#mask-2)"></path>
                </g>
                <path d="M8.78759832,5.4125 L16.9760422,5.4125 L16.9760422,4.6 L8.78759832,4.6 L8.78759832,5.4125 Z M16.0545344,4.77904635 C16.1784068,4.77904635 16.2794896,4.88647416 16.2794896,5.01777482 C16.2794896,5.14948708 16.1784068,5.2577381 16.0545344,5.2577381 C15.9310296,5.2577381 15.8295792,5.14948708 15.8295792,5.01777482 C15.8295792,4.88647416 15.9310296,4.77904635 16.0545344,4.77904635 L16.0545344,4.77904635 Z M14.4916102,4.77904635 C14.6154826,4.77904635 14.7165654,4.88647416 14.7165654,5.01777482 C14.7165654,5.14948708 14.6154826,5.2577381 14.4916102,5.2577381 C14.3677378,5.2577381 14.2659198,5.14948708 14.2659198,5.01777482 C14.2659198,4.88647416 14.3677378,4.77904635 14.4916102,4.77904635 L14.4916102,4.77904635 Z M12.8831068,4.77904635 C13.0066116,4.77904635 13.1069593,4.88647416 13.1069593,5.01777482 C13.1069593,5.14948708 13.0066116,5.2577381 12.8831068,5.2577381 C12.7592344,5.2577381 12.657784,5.14948708 12.657784,5.01777482 C12.657784,4.88647416 12.7592344,4.77904635 12.8831068,4.77904635 L12.8831068,4.77904635 Z M11.2727655,4.77904635 C11.397373,4.77904635 11.4988234,4.88647416 11.4988234,5.01777482 C11.4988234,5.14948708 11.397373,5.2577381 11.2727655,5.2577381 C11.1499958,5.2577381 11.0481778,5.14948708 11.0481778,5.01777482 C11.0481778,4.88647416 11.1499958,4.77904635 11.2727655,4.77904635 L11.2727655,4.77904635 Z M9.69844645,4.77904635 C9.82231886,4.77904635 9.92376926,4.88647416 9.92376926,5.01777482 C9.92376926,5.14948708 9.82231886,5.2577381 9.69844645,5.2577381 C9.57530919,5.2577381 9.47349122,5.14948708 9.47349122,5.01777482 C9.47349122,4.88647416 9.57530919,4.77904635 9.69844645,4.77904635 L9.69844645,4.77904635 Z" id="Fill-6" fill="#F8C338"></path>
                <polygon id="Fill-7" fill="#F8C338" points="8.78759832 4.5044 16.9760422 4.5044 16.9760422 4.2956 8.78759832 4.2956"></polygon>
                <g id="Group-13" transform="translate(5.192672, 11.000000)" fill="#19598E">
                    <path d="M19.1413071,0.534347112 C19.1413071,0.534347112 19.2694997,0.504847865 19.2694997,0.388344512 C19.2694997,0.306568119 19.2106205,0.238981238 19.0611867,0.238981238 L18.8167263,0.238981238 L18.8167263,0.771087901 L18.9184606,0.771087901 L18.9184606,0.547789806 L19.0295112,0.547789806 C19.0295112,0.547789806 19.1323634,0.65607818 19.1878887,0.771087901 L19.316454,0.771087901 C19.316454,0.771087901 19.2273899,0.612762831 19.1413071,0.534347112 M19.0529883,0.46489319 C19.0030528,0.46489319 18.9184606,0.465640006 18.9184606,0.465640006 L18.9184606,0.315529916 L19.0529883,0.315529916 C19.1014332,0.315529916 19.1591944,0.327478978 19.1591944,0.388344512 C19.1591944,0.448836638 19.1025512,0.46489319 19.0529883,0.46489319" id="Fill-8"></path>
                    <path d="M18.522513,0.499814609 C18.522513,0.775676678 18.7580313,1 19.0474456,1 C19.3368598,1 19.5723781,0.775676678 19.5723781,0.499814609 C19.5723781,0.224323322 19.3368598,0 19.0474456,0 C18.7580313,0 18.522513,0.224323322 18.522513,0.499814609 M18.620338,0.499814609 C18.620338,0.275491287 18.811189,0.09306637 19.0474456,0.09306637 C19.2825946,0.09306637 19.4741839,0.275491287 19.4741839,0.499814609 C19.4741839,0.724137931 19.2825946,0.906192065 19.0474456,0.906192065 C18.811189,0.906192065 18.620338,0.724137931 18.620338,0.499814609" id="Fill-10"></path>
                    <path d="M1.79518058,4.38622488 C1.78447521,4.35938544 1.74091541,4.34026695 1.74091541,4.34026695 C1.72984088,4.34541423 1.59030186,4.40791702 1.41384776,4.51527474 C1.21192224,4.35865012 0.893345057,4.24393912 0.819884038,4.21930567 L0.819884038,2.74571059 C0.819884038,2.74571059 1.0860418,3.08212264 1.37324116,3.09315255 C1.68185127,3.09315255 1.80699341,2.98211819 1.91589291,2.66629529 C1.39465191,2.61629306 1.1070834,2.28466064 1.1070834,2.28466064 C1.1070834,2.28466064 1.00150626,2.44827087 0.617220221,2.62621997 C0.314147373,2.76703507 0.0214107493,2.81740496 0.0214107493,2.81740496 C0.0214107493,2.81740496 0.103362238,2.87328981 0.170178542,3.03542939 L0.170178542,4.26746958 C0.131048552,4.3799746 0.0760450751,4.48733232 0,4.57557155 C0.787398763,4.66086947 1.03768304,4.99250189 1.03768304,4.99250189 C1.03768304,4.99250189 1.07533643,4.95352957 1.12664839,4.89764472 C1.42196907,4.63807433 1.79924124,4.46086055 1.80367105,4.45865457 C1.80367105,4.45865457 1.8018253,4.40350506 1.79518058,4.38622488" id="Fill-11"></path>
                    <path d="M12.942798,2.30230848 C12.8951775,2.26885111 12.8431272,2.28796961 12.8431272,2.28796961 C12.8431272,2.28796961 12.840174,2.28833727 12.8357442,2.29642587 L12.622375,2.56114354 C12.607609,2.57290877 12.5928429,2.584674 12.5773386,2.59460092 C12.4883733,2.61776371 11.5374407,2.75857881 11.4063921,2.28649895 C11.1365428,2.63136726 10.9807612,2.83578814 10.9807612,2.83578814 C10.9807612,2.83578814 11.0837543,3.0835933 11.4669329,3.14021347 C11.7138948,3.1821271 12.0826765,3.13727216 12.1657354,3.12587459 L10.7352759,4.8969094 C10.7352759,4.8969094 10.7260471,4.94948527 10.7659154,4.97963367 C10.8120592,5.0145617 10.8711234,4.99397255 10.8711234,4.99397255 L11.1203002,4.68513525 C11.2232933,4.65903115 11.5027405,4.60351397 11.8818584,4.65094255 C12.3643386,4.71123936 12.4318932,4.99250189 12.4318932,4.99250189 C12.4318932,4.99250189 12.6304963,4.71123936 12.8505102,4.42630019 C12.6035483,3.96672089 11.7378896,4.11378626 11.5522067,4.15092027 L12.9782364,2.38540042 C12.9782364,2.38540042 12.9955865,2.34017782 12.942798,2.30230848" id="Fill-12"></path>
                </g>
                <path d="M20.3244936,15.3251867 C20.23402,15.278425 20.1845016,15.2039104 20.158067,15.1476443 L20.158067,13.9858248 C20.1945542,13.8337542 20.2504021,13.7463136 20.3937449,13.6520299 C20.1200904,13.6208554 19.5563994,13.3304005 19.2723199,13.2 C19.1971115,13.3041684 19.121903,13.361575 18.9074473,13.490835 C18.6371436,13.6543109 18.1963179,13.7451731 18.1963179,13.7451731 C18.1963179,13.7451731 18.2763665,13.8029599 18.3437562,13.9656755 L18.3437562,15.2529532 C18.3042904,15.3670061 18.2499318,15.4742159 18.1743511,15.5639375 C18.2223802,15.5688798 18.2681755,15.573442 18.3121091,15.5776239 C18.5861359,15.6183028 18.8378236,15.7460421 19.1650921,16 C19.2723199,15.8699796 19.5515592,15.657461 19.5515592,15.657461 C19.5515592,15.657461 19.739208,15.7612492 19.9968528,15.9946775 C20.0984959,15.8133333 20.5709688,15.4495044 20.5709688,15.4495044 C20.5709688,15.4495044 20.4853354,15.407685 20.3244936,15.3251867 M18.9982931,15.1799593 L18.9982931,13.6535506 C19.1449868,13.7425119 19.3940683,13.8615071 19.5031577,13.9132111 L19.5031577,15.4479837 C19.3248169,15.3441955 19.113712,15.2369857 18.9982931,15.1799593" id="Fill-14" fill="#19598E"></path>
                <path d="M13.0382218,13.4 L12.5139958,13.8207694 C12.5139958,13.8207694 12.9608887,13.9795093 13.0535459,14.4647895 C13.0998745,14.6278784 13.0792048,15.0736549 12.9509102,15.27661 C12.8995924,15.3657653 12.7142779,15.5393644 12.7142779,15.5393644 C12.7142779,15.5393644 12.5521278,15.3621411 12.3172774,15.2454419 L12.3172774,13.7120435 C12.2431517,13.4971285 11.9936899,13.4268191 11.9131494,13.4101478 L11.8996072,13.4072484 C11.8960435,13.4065236 11.891767,13.4130471 11.891767,13.4130471 L11.3839342,13.8113465 C11.3839342,13.8113465 11.4869262,13.8327293 11.5767325,13.8979649 C11.6084497,13.9371062 11.6733098,14.0045163 11.6904157,14.1103429 L11.6904157,15.2577641 C11.651571,15.3831614 11.5956203,15.5016727 11.5140107,15.5988012 C11.6383851,15.6125732 11.7520684,15.6223585 11.8465075,15.6575132 C12.2214128,15.8108168 12.3479256,16 12.3479256,16 C12.3479256,16 13.0328762,15.4697798 13.2231799,15.2073878 C13.3390014,15.0475606 13.5314433,14.7616114 13.5724263,14.4002788 C13.6597379,13.5928074 13.0382218,13.4 13.0382218,13.4" id="Fill-15" fill="#19598E"></path>
                <path d="M11.0004642,13.4626335 C10.8163986,13.3491103 10.7719161,13.2 10.7719161,13.2 C10.7719161,13.2 10.6024223,13.3736655 10.2339077,13.5921708 C10.1157989,13.3491103 9.77297675,13.23879 9.77297675,13.23879 L9.1870346,13.6508897 C9.1870346,13.6508897 9.31856481,13.675089 9.41980089,13.7544484 C9.45201237,13.7907473 9.51911961,13.8441281 9.52985677,13.9377224 L9.52985677,15.0818505 C9.50416429,15.2088968 9.42900417,15.3135231 9.34387383,15.4060498 C9.34732506,15.4064057 9.34924241,15.4078292 9.34924241,15.4078292 C9.80250394,15.5434164 10.0494586,15.8 10.0494586,15.8 L10.051376,15.8 C10.051376,15.8 10.2542316,15.5519573 10.6354008,15.3039146 C10.6354008,15.3039146 10.6411528,15.3 10.6411528,15.2975089 C10.3171207,15.2128114 10.222787,15.069395 10.2043805,14.9729537 L10.2043805,13.7466192 C10.2354416,13.7266904 10.2680365,13.7074733 10.299481,13.6907473 C10.3236397,13.7188612 10.3658214,13.7647687 10.4294774,13.8224199 C10.536082,13.9199288 10.735103,14.0558719 11.0445632,13.9487544 C11.3540235,13.8419929 11.3839342,13.566548 11.3839342,13.566548 C11.3839342,13.566548 11.1994851,13.5829181 11.0004642,13.4626335" id="Fill-16" fill="#19598E"></path>
                <path d="M7.96575675,14.8129191 C8.39572499,14.5309349 9.08164337,14.1646225 9.09004665,14.1600436 C9.12155898,14.1447806 9.15342145,14.1295176 9.1870346,14.1127283 C8.78332664,13.8521123 8.47555622,13.2 8.47555622,13.2 L8.41918417,13.2438812 C8.30328882,13.3186699 7.82080004,13.6109567 7.22836824,13.7384028 L7.20771015,13.7441265 C7.20771015,13.7441265 7.27703728,13.7983102 7.33796112,13.9406378 C7.34216276,13.9532298 7.34601427,13.9673481 7.34986578,13.9814663 L7.34986578,15.2574543 C7.31275125,15.3734533 7.26128111,15.4818207 7.18985317,15.5726356 C7.225217,15.5737803 7.25287783,15.5741619 7.28509043,15.579504 C7.81694853,15.6939766 8.05084004,15.8591987 8.12191786,15.9194876 L8.17934032,16 C8.46540225,15.6852003 8.90797542,15.4539657 8.9125272,15.4516762 C8.9125272,15.4516762 8.91077651,15.3936768 8.90482418,15.3761243 C8.89467021,15.3486509 8.85300391,15.3284274 8.85300391,15.3284274 C8.8424998,15.334151 8.70769705,15.399782 8.53858088,15.5127283 C8.47415568,15.463505 8.2728269,15.3204143 7.96575675,15.2040338 L7.96575675,14.8129191 Z M7.96575675,13.6502589 C7.98676497,13.6411011 8.00742306,13.6319433 8.027731,13.6224039 C8.03018196,13.630417 8.03298306,13.6384301 8.03613429,13.6487326 C8.14432662,13.9204143 8.38312006,14.1894249 8.51162033,14.3210684 C8.33445101,14.4214227 8.13697375,14.5370401 7.96575675,14.6461706 L7.96575675,13.6502589 L7.96575675,13.6502589 Z" id="Fill-17" fill="#19598E"></path>
                <path d="M14.7558235,14.8129191 C15.1857917,14.5309349 15.8717101,14.1646225 15.8801134,14.1600436 C15.9116257,14.1447806 15.9438383,14.1295176 15.9774515,14.1127283 C15.5737435,13.8521123 15.265623,13.2 15.265623,13.2 L15.2092509,13.2438812 C15.0933556,13.3186699 14.6112169,13.6109567 14.0187851,13.7384028 L13.998127,13.7441265 C13.998127,13.7441265 14.0674542,13.7983102 14.1280279,13.9406378 C14.1325796,13.9532298 14.136081,13.9673481 14.1402827,13.9814663 L14.1402827,15.2574543 C14.102818,15.3734533 14.0513479,15.4818207 13.98027,15.5726356 C14.0152837,15.5737803 14.0432947,15.5741619 14.0751572,15.579504 C14.6070153,15.6939766 14.8409068,15.8591987 14.9123347,15.9194876 L14.9694071,16 C15.255469,15.6852003 15.6980422,15.4539657 15.7025939,15.4516762 C15.7025939,15.4516762 15.7011934,15.3936768 15.6948909,15.3761243 C15.684737,15.3486509 15.6430706,15.3284274 15.6430706,15.3284274 C15.6329167,15.334151 15.4981139,15.399782 15.3289978,15.5127283 C15.2645726,15.463505 15.0628936,15.3204143 14.7558235,15.2040338 L14.7558235,14.8129191 Z M14.7558235,13.6502589 C14.7768317,13.6411011 14.7974898,13.6319433 14.8177977,13.6224039 C14.8202487,13.630417 14.8230498,13.6384301 14.8265512,13.6487326 C14.9347435,13.9204143 15.1735369,14.1894249 15.3020372,14.3210684 C15.1248679,14.4214227 14.9273906,14.5370401 14.7558235,14.6461706 L14.7558235,13.6502589 L14.7558235,13.6502589 Z" id="Fill-18" fill="#19598E"></path>
            </g>
        </g>
    </g>
</svg>